<svg version="1.0" xmlns="http://www.w3.org/2000/svg" width="665.333" height="592" fill="#4831d4" viewBox="0 0 499 444"><path d="M253 54.7c-24.5 3.7-38.1 7.8-57.5 17.4C177 81.2 165.2 89.7 150 105c-15 15-23.8 27-32.4 44.5-20.8 41.8-23.7 87.5-8.6 132.6 9 27.1 22.1 48.1 43.5 69.5 20.9 21 42 34.4 67.9 43.3 21 7.3 29.8 8.6 55.6 8.6 19.4-.1 23.9-.4 32.6-2.3 51.8-11.2 93.8-44.6 116.9-92.7 12.9-27 18.1-52.5 17.2-84.8-.6-21.8-3-35.8-9.2-53.6-24.9-71.5-87.9-116.6-162-116-8.8.1-17.1.3-18.5.6zm49.2 14.2c15.9 2.8 31.8 8 47.3 15.7 17.7 8.8 29.6 17.5 45.1 32.9 19.5 19.3 31.8 39 39.8 63.7 5.5 17 7.1 27.8 7.1 48.8 0 21.2-1.4 30.5-7.1 48.3C410.9 351 335.9 399.9 257.1 394c-52.6-4-97.7-30.3-125.4-73-10.9-16.9-18.1-34.4-22.4-54.7-2.4-11.4-2.7-14.9-2.7-32.3-.1-16.4.3-21.3 2.2-30.9 3-14.5 6.3-25 12.1-38.1 19.1-42.7 56-75.9 100.5-90.5 9.8-3.2 27.6-6.8 38.6-7.9 9-.8 30.8.4 42.2 2.3z"/><path d="M334.3 143.1c-17.4 2.9-44.9 20.7-81.6 52.6-16 14-44.9 42.5-59.5 58.8-14.5 16-18.5 20.3-17.9 19 .2-.6 6.7-12 14.4-25.5 40-70.3 47.7-85 45.3-86.5-3.9-2.4-17.1 17.1-36.7 54-4.4 8.2-12.6 23.5-18.3 34-14.1 26.2-24 46.1-24 48.4 0 2.9 2.9 3.4 5 .8 1.1-1.2 7-8.5 13.1-16.2 52.3-65.5 114.3-118 155.4-131.7 5.3-1.8 9.2-2.3 16.1-2.3 10 .1 11.3-1 4.6-3.8-5.1-2.1-9.8-2.6-15.9-1.6z"/><path d="M352.6 155.5c-19.7 5.6-37.6 23.5-37.6 37.7 0 9.4 5.6 16.8 21.4 28.3 10.2 7.5 15.3 12.7 17.6 17.8l1.9 4.2-10.4 1.2c-18.8 2.1-28.8 5-44 12.6-21.2 10.6-38.4 27.4-38.5 37.7 0 3.9 3.6 8.8 7.7 10.5 11.2 4.7 33.4 1.5 51.6-7.5 9.8-4.9 22.4-13.9 28.4-20.3 6.4-7 11.8-17.4 12.8-24.8l.7-5.1 4.4.7c2.5.3 7 1.5 10.1 2.6 3.1 1 5.8 1.7 6.1 1.4.8-.7-7.6-4.1-13.8-5.6-6.6-1.5-8-2.5-8-5.3-.1-7.2-8.3-16.9-24.2-28.7-12.4-9.2-16.3-14.1-16.2-20.3.3-14.6 20.6-32.6 38.7-34.3 8.6-.8 13.1.8 16.4 5.8 2.2 3.3 2.5 4.7 2.1 9.4-.8 10.1-9.3 18.8-21.8 22.5-7.2 2.1-7.9 2.7-5.8 4.8 2.2 2.2 8.7 1.4 15-2 10-5.3 15.7-14.7 15.8-25.6 0-12.4-5.9-18.5-18.4-18.9-3.9-.1-9.3.4-12 1.2zm3.4 96.6c0 15.5-22.1 38.2-45.4 46.8-18.2 6.7-39 6.8-42.5.3-2.8-5.3-.3-12 7.8-20.2 17.4-17.6 49.4-31.2 75.4-31.9l4.7-.1v5.1z"/><path d="M218.4 235.5c-5.2 7.9 4.4 37.2 18.7 56.5 11.8 16.2 23.7 23.9 35.4 23 2.2-.2 1.7-.5-2.3-1.1-13.9-2.3-25.3-13.5-35.8-35.2-6.1-12.7-9.4-24.3-10.2-35.7-.6-7.8-1-9.5-2.4-9.8-.9-.2-2.4.8-3.4 2.3z"/></svg>